<svg xmlns="http://www.w3.org/2000/svg" version="1.1" x="0px" y="0px" viewBox="0 0 64 64" style="enable-background:new 0 0 64 64;" xml:space="preserve"><g fill="#FFF"><path d="M62,13h-1.591c-0.293-0.979-0.69-1.919-1.187-2.807l1.485-1.486c0.391-0.391,0.391-1.023,0-1.414l-4-4   c-0.391-0.391-1.023-0.391-1.414,0l-1.486,1.485C52.916,4.281,51.976,3.885,51,3.594V2c0-0.552-0.448-1-1-1h-6   c-0.552,0-1,0.448-1,1v1.594c-0.979,0.291-1.918,0.687-2.808,1.184l-1.485-1.485c-0.391-0.391-1.023-0.391-1.414,0l-4,4   c-0.391,0.391-0.391,1.023,0,1.414l1.485,1.485c-0.496,0.889-0.893,1.829-1.186,2.808h-1.425c-1.637-0.649-3.396-1-5.167-1h-5   c-7.644,0-13.877,6.158-13.998,13.774L1.094,40.577c-0.145,0.31-0.121,0.672,0.063,0.96S1.658,42,2,42h6v12c0,0.553,0.448,1,1,1h10   v8h2v-9c0-0.553-0.448-1-1-1H10V41c0-0.553-0.448-1-1-1H3.57l6.336-13.577C9.968,26.291,10,26.146,10,26c0-6.617,5.383-12,12-12h5   c1.365,0,2.72,0.246,4,0.697V20c0,0.552,0.448,1,1,1h1.591c0.293,0.979,0.69,1.919,1.187,2.807l-1.485,1.486   c-0.391,0.391-0.391,1.023,0,1.414l4,4c0.391,0.391,1.023,0.391,1.414,0l0.324-0.324L39,47.998c0,0.391,0.227,0.746,0.582,0.91   c0.354,0.163,0.772,0.106,1.069-0.149L47,43.317l6.349,5.441C53.534,48.918,53.766,49,54,49c0.142,0,0.285-0.03,0.418-0.092   c0.355-0.164,0.582-0.52,0.582-0.91l-0.031-17.615l0.324,0.324c0.391,0.391,1.023,0.391,1.414,0l4-4   c0.391-0.391,0.391-1.023,0-1.414l-1.485-1.485c0.496-0.889,0.893-1.829,1.186-2.808H62c0.552,0,1-0.448,1-1v-6   C63,13.448,62.552,13,62,13z M51,44.112V35h-2v7.397l-1.349-1.156c-0.375-0.322-0.927-0.322-1.302,0L45,42.397V35h-2v9.112   l-1.996,1.711l0.029-16.191c0.638,0.302,1.29,0.573,1.967,0.774V32c0,0.552,0.448,1,1,1h6c0.552,0,1-0.448,1-1v-1.594   c0.679-0.202,1.33-0.472,1.967-0.773l0.029,16.19L51,44.112z M61,19h-1.358c-0.463,0-0.865,0.317-0.973,0.768   c-0.312,1.305-0.833,2.536-1.548,3.66c-0.252,0.396-0.195,0.913,0.136,1.244L58.586,26L56,28.586l-1.329-1.329   c-0.331-0.332-0.849-0.39-1.244-0.136c-1.125,0.716-2.355,1.236-3.658,1.544c-0.451,0.107-0.77,0.51-0.77,0.973V31h-4v-1.362   c0-0.464-0.319-0.867-0.77-0.973c-1.296-0.307-2.527-0.826-3.658-1.545c-0.396-0.251-0.912-0.193-1.243,0.137L38,28.586L35.414,26   l1.33-1.33c0.332-0.332,0.388-0.85,0.136-1.245c-0.716-1.122-1.237-2.353-1.549-3.658C35.223,19.317,34.82,19,34.357,19H33v-4   h1.358c0.463,0,0.865-0.317,0.973-0.768c0.312-1.305,0.833-2.536,1.548-3.66c0.252-0.396,0.195-0.913-0.136-1.244L35.414,8   L38,5.414l1.329,1.329c0.332,0.332,0.849,0.389,1.244,0.136c1.125-0.716,2.355-1.236,3.658-1.544C44.682,5.228,45,4.825,45,4.362V3   h4v1.362c0,0.464,0.319,0.867,0.77,0.973c1.296,0.307,2.527,0.826,3.658,1.545c0.396,0.251,0.913,0.193,1.243-0.137L56,5.414   L58.586,8l-1.33,1.33c-0.332,0.332-0.388,0.85-0.136,1.245c0.716,1.122,1.237,2.353,1.549,3.658C58.777,14.683,59.18,15,59.643,15   H61V19z"/><path d="M47,7c-5.514,0-10,4.486-10,10s4.486,10,10,10s10-4.486,10-10S52.514,7,47,7z M47,25c-4.411,0-8-3.589-8-8s3.589-8,8-8   s8,3.589,8,8S51.411,25,47,25z"/><path d="M47,11c-3.309,0-6,2.691-6,6s2.691,6,6,6s6-2.691,6-6S50.309,11,47,11z M47,21c-2.206,0-4-1.794-4-4s1.794-4,4-4   s4,1.794,4,4S49.206,21,47,21z"/><path d="M23,25h-2v2.184c-1.161,0.414-2,1.514-2,2.816c0,1.654,1.346,3,3,3c0.551,0,1,0.448,1,1s-0.449,1-1,1h-3v2h2v2h2v-2.184   c1.161-0.414,2-1.514,2-2.816c0-1.654-1.346-3-3-3c-0.551,0-1-0.449-1-1s0.449-1,1-1h3v-2h-2V25z"/><path d="M48,57c-1.302,0-2.402,0.839-2.816,2h-7.369c-0.035-0.098-0.072-0.193-0.116-0.285l6.407-6.407   C44.625,52.734,45.278,53,46,53c1.654,0,3-1.346,3-3s-1.346-3-3-3s-3,1.346-3,3c0,0.182,0.023,0.359,0.054,0.532l-6.768,6.768   c-0.12-0.057-0.245-0.102-0.373-0.144l-0.819-7.37C36.207,49.348,37,48.268,37,47c0-1.654-1.346-3-3-3   c-0.462,0-0.894,0.113-1.285,0.301l-3.775-3.775C31.415,38.506,33,35.436,33,32c0-6.065-4.935-11-11-11s-11,4.935-11,11   s4.935,11,11,11c0.066,0,0.13-0.009,0.196-0.01l1.742,7.841C23.363,51.378,23,52.146,23,53c0,1.654,1.346,3,3,3   c0.548,0,1.055-0.158,1.498-0.416l4.704,3.36C32.077,59.274,32,59.627,32,60c0,1.654,1.346,3,3,3c1.302,0,2.402-0.839,2.816-2   h7.369c0.414,1.161,1.514,2,2.816,2c1.654,0,3-1.346,3-3S49.654,57,48,57z M46,49c0.551,0,1,0.448,1,1s-0.449,1-1,1s-1-0.448-1-1   S45.449,49,46,49z M35,47c0,0.552-0.449,1-1,1s-1-0.448-1-1s0.449-1,1-1S35,46.448,35,47z M13,32c0-4.962,4.038-9,9-9s9,4.038,9,9   c0,4.963-4.038,9-9,9S13,36.963,13,32z M24.197,42.779c1.083-0.221,2.11-0.601,3.052-1.115l4.051,4.051   C31.113,46.106,31,46.538,31,47c0,1.334,0.881,2.454,2.088,2.843l0.819,7.37c-0.142,0.056-0.274,0.127-0.404,0.203l-4.704-3.36   C28.923,53.726,29,53.373,29,53c0-1.654-1.346-3-3-3c-0.066,0-0.128,0.015-0.194,0.02L24.197,42.779z M25,53c0-0.552,0.449-1,1-1   s1,0.448,1,1s-0.449,1-1,1S25,53.552,25,53z M35,61c-0.551,0-1-0.448-1-1s0.449-1,1-1s1,0.448,1,1S35.551,61,35,61z M48,61   c-0.551,0-1-0.448-1-1s0.449-1,1-1s1,0.448,1,1S48.551,61,48,61z"/></g></svg>