<svg width="32" height="23" viewBox="0 0 32 23" fill="none" xmlns="http://www.w3.org/2000/svg">
<path d="M29.1875 0H2.8125C1.25856 0 0 1.29452 0 2.875V20.125C0 21.7149 1.26781 23 2.8125 23H29.1875C30.7284 23 32 21.7203 32 20.125V2.875C32 1.29733 30.7464 0 29.1875 0ZM28.7936 1.91667C28.219 2.50093 18.3302 12.5563 17.9888 12.9034C17.4575 13.4465 16.7513 13.7455 16 13.7455C15.2487 13.7455 14.5425 13.4464 14.0095 12.9017C13.7799 12.6681 4.00019 2.72384 3.20637 1.91667H28.7936ZM1.875 19.7349V3.26632L9.97738 11.5051L1.875 19.7349ZM3.20756 21.0833L11.3068 12.8568L12.6854 14.2587C13.5708 15.1638 14.7479 15.6622 16 15.6622C17.2521 15.6622 18.4292 15.1638 19.3128 14.2605L20.6933 12.8568L28.7924 21.0833H3.20756ZM30.125 19.7349L22.0226 11.5051L30.125 3.26632V19.7349Z" fill="url(#paint0_linear_31_79)"/>
<defs>
<linearGradient id="paint0_linear_31_79" x1="-3.06709" y1="-9.85714" x2="34.1919" y2="-7.77508" gradientUnits="userSpaceOnUse">
<stop stop-color="#00B292"/>
<stop offset="0.290505" stop-color="#2DFFD9"/>
<stop offset="0.635914" stop-color="#54FFE0"/>
<stop offset="0.978018" stop-color="#03776F"/>
</linearGradient>
</defs>
</svg>
