<svg width="30" height="27" viewBox="0 0 30 27" fill="none" xmlns="http://www.w3.org/2000/svg">
<path d="M29.4126 0.475523C28.9299 0.0333156 28.244 -0.114048 27.6222 0.0908545L1.24402 8.78623C0.525131 9.02318 0.0376305 9.6649 0.00206411 10.4209C-0.0334437 11.177 0.391654 11.8617 1.08505 12.1652L7.60859 15.0194C7.6404 15.167 9.51312 23.8527 9.57681 24.148C9.65855 24.5272 9.85103 24.865 10.2588 24.9689C10.6712 25.0739 10.9626 24.8485 11.2703 24.6181C11.4416 24.4899 16.1114 20.9932 16.1114 20.9932L21.7709 25.6244C22.1005 25.8943 22.5034 26.0351 22.9142 26.0351C23.1098 26.035 23.3073 26.0031 23.4993 25.938C24.095 25.736 24.5366 25.2498 24.6805 24.6376L29.952 2.22537C30.1018 1.58816 29.8952 0.91773 29.4126 0.475523ZM11.692 16.6549C11.6888 16.6625 11.6857 16.6711 11.6827 16.6814L10.5914 20.494L9.37361 14.8459L17.7476 10.1932L11.8929 16.315C11.8007 16.4114 11.7328 16.528 11.692 16.6549ZM12.0384 21.8419L12.534 20.1102L13.0081 18.4538L14.7068 19.8439L12.0384 21.8419ZM28.2368 1.82189L22.9654 24.2341C22.9628 24.2452 22.9593 24.2606 22.9335 24.2693C22.9079 24.278 22.8955 24.2681 22.8867 24.2608L16.6939 19.1932C16.6937 19.1931 16.6936 19.1929 16.6934 19.1928L13.8242 16.8448L23.0423 7.20625C23.3434 6.89142 23.3691 6.40386 23.1029 6.05904C22.8366 5.71416 22.3584 5.61566 21.9777 5.8273L8.32824 13.411L1.79134 10.5509C1.77142 10.5422 1.76046 10.5374 1.76204 10.5037C1.76363 10.4701 1.77499 10.4663 1.79562 10.4595L28.1738 1.76417C28.1866 1.76001 28.201 1.75521 28.2222 1.77455C28.2434 1.794 28.2399 1.80876 28.2368 1.82189Z" fill="url(#paint0_linear_31_74)"/>
<defs>
<linearGradient id="paint0_linear_31_74" x1="-2.8754" y1="-11.1579" x2="32.089" y2="-9.53969" gradientUnits="userSpaceOnUse">
<stop stop-color="#00B292"/>
<stop offset="0.290505" stop-color="#2DFFD9"/>
<stop offset="0.635914" stop-color="#54FFE0"/>
<stop offset="0.978018" stop-color="#03776F"/>
</linearGradient>
</defs>
</svg>
