<svg width="40" height="24" viewBox="0 0 40 24" fill="none" xmlns="http://www.w3.org/2000/svg">
<path fill-rule="evenodd" clip-rule="evenodd" d="M5.87642 0H1.50036C0.25006 0 0 0.593684 0 1.25053C0 2.42147 1.48286 8.22948 6.90792 15.9107C10.5238 21.1566 15.6188 24 20.2549 24C23.0368 24 23.3807 23.3684 23.3807 22.2808V18.3158C23.3807 17.0526 23.6432 16.8 24.5247 16.8C25.1748 16.8 26.2876 17.1284 28.8832 19.6573C31.8502 22.6547 32.3391 24 34.0082 24H38.3843C39.6346 24 40.2597 23.3684 39.8984 22.1217C39.5046 20.88 38.088 19.0775 36.2075 16.9415C35.1873 15.7238 33.6569 14.4114 33.1943 13.7558C32.5441 12.9133 32.7317 12.5381 33.1943 11.7891C33.1943 11.7891 38.5256 4.20126 39.0832 1.62569C39.3608 0.688422 39.0832 0 37.7579 0H33.3831C32.2703 0 31.7577 0.593684 31.4801 1.25053C31.4801 1.25053 29.2546 6.7301 26.1026 10.2897C25.0823 11.3204 24.6185 11.6488 24.0621 11.6488C23.7845 11.6488 23.3819 11.3204 23.3819 10.3844V1.62569C23.3819 0.501475 23.0581 0 22.1316 0H15.2549C14.5598 0 14.1422 0.521685 14.1422 1.01684C14.1422 2.08168 15.7176 2.328 15.8801 5.32421V11.8358C15.8801 13.2632 15.625 13.5221 15.0674 13.5221C13.5845 13.5221 9.97616 8.01726 7.83564 1.71916C7.41554 0.492632 6.99419 0 5.87642 0Z" fill="url(#paint0_linear_4_67)"/>
<defs>
<linearGradient id="paint0_linear_4_67" x1="-3.83387" y1="-10.2857" x2="42.6769" y2="-7.17226" gradientUnits="userSpaceOnUse">
<stop stop-color="#00B292"/>
<stop offset="0.290505" stop-color="#2DFFD9"/>
<stop offset="0.635914" stop-color="#54FFE0"/>
<stop offset="0.978018" stop-color="#03776F"/>
</linearGradient>
</defs>
</svg>
