<svg xmlns="http://www.w3.org/2000/svg" viewBox="0 0 62 62"><g fill="white"><path d="M61,14h-1.51c-.39-1.5-.99-2.93-1.81-4.27l1.02-1.02c.39-.39,.39-1.02,0-1.41l-4-4c-.39-.39-1.02-.39-1.41,0l-1.02,1.02c-1.34-.82-2.77-1.42-4.27-1.81V1c0-.55-.45-1-1-1h-6c-.55,0-1,.45-1,1v1.51c-1.51,.39-2.94,.99-4.28,1.8l-1.01-1.01c-.39-.39-1.02-.39-1.41,0l-4,4c-.39,.39-.39,1.02,0,1.41l1.01,1.02c-.33,.55-.63,1.12-.89,1.7-1.11-.28-2.26-.43-3.42-.43h-5c-7.65,0-13.88,6.16-14,13.77L.09,39.58c-.14,.31-.12,.67,.06,.96,.18,.29,.5,.46,.84,.46H7v12c0,.55,.45,1,1,1h10v8h2v-9c0-.55-.45-1-1-1H9v-12c0-.55-.45-1-1-1H2.57l6.34-13.58c.06-.13,.09-.28,.09-.42,0-6.62,5.38-12,12-12h5c.92,0,1.83,.11,2.71,.31-.07,.23-.15,.46-.2,.69h-1.5c-.55,0-1,.45-1,1v6c0,.55,.45,1,1,1h1.51c.18,.68,.41,1.35,.68,2h-5.18v-2c0-.26-.1-.52-.29-.71l-1.4-1.4c.43-.52,.69-1.17,.69-1.89,0-1.65-1.35-3-3-3s-3,1.35-3,3,1.35,3,3,3c.18,0,.36-.02,.53-.05l1.47,1.47v1.59h-1c-.55,0-1,.45-1,1v3h-.59l-1.47-1.47c.03-.17,.05-.35,.05-.53,0-1.65-1.35-3-3-3s-3,1.35-3,3,1.35,3,3,3c.72,0,1.38-.27,1.89-.69l1.4,1.4c.19,.19,.44,.29,.71,.29h1v2h-6c0-1.65-1.35-3-3-3s-3,1.35-3,3,1.35,3,3,3c.88,0,1.67-.39,2.22-1h6.78v2h-3c-.27,0-.52,.1-.71,.29l-1.01,1.01c-.39-.19-.82-.3-1.28-.3-1.65,0-3,1.35-3,3s1.35,3,3,3,3-1.35,3-3c0-.46-.11-.89-.3-1.28l.72-.72h2.59v1c0,.55,.45,1,1,1h2v.59l-1.47,1.47c-.17-.03-.35-.05-.53-.05-1.65,0-3,1.35-3,3s1.35,3,3,3,3-1.35,3-3c0-.72-.27-1.38-.69-1.89l1.4-1.4c.19-.19,.29-.44,.29-.71v-1h2v6.18c-1.16,.41-2,1.51-2,2.82,0,1.65,1.35,3,3,3s3-1.35,3-3c0-1.3-.84-2.4-2-2.82v-6.18h2v3c0,.26,.1,.52,.29,.71l1.01,1.01c-.19,.39-.3,.82-.3,1.28,0,1.12,.63,2.09,1.54,2.6l-.45,.98c-.06,.13-.09,.27-.09,.41v12h2v-11.78l.58-1.28c1.38-.27,2.42-1.49,2.42-2.94,0-1.65-1.35-3-3-3-.46,0-.89,.11-1.28,.3l-.72-.72v-2.59h7.59l.72,.72c-.19,.39-.3,.82-.3,1.28,0,1.65,1.35,3,3,3s3-1.35,3-3-1.35-3-3-3c-.46,0-.89,.11-1.28,.3l-1.01-1.01c-.19-.19-.44-.29-.71-.29h-5v-6.16c1.26,.74,2.6,1.29,4,1.65v1.51c0,.55,.45,1,1,1h6c.55,0,1-.45,1-1v-1.51c1.51-.39,2.94-.99,4.28-1.8l1.01,1.01c.39,.39,1.02,.39,1.41,0l4-4c.39-.39,.39-1.02,0-1.41l-1.01-1.01c.81-1.33,1.41-2.77,1.8-4.28h1.5c.55,0,1-.45,1-1v-6c0-.55-.45-1-1-1Zm-42,4c0-.55,.45-1,1-1s1,.45,1,1-.45,1-1,1-1-.45-1-1Zm-4,9c-.55,0-1-.45-1-1s.45-1,1-1,1,.45,1,1-.45,1-1,1Zm-4,6c-.55,0-1-.45-1-1s.45-1,1-1,1,.45,1,1-.45,1-1,1Zm3,8c-.55,0-1-.45-1-1s.45-1,1-1,1,.45,1,1-.45,1-1,1Zm7,5c-.55,0-1-.45-1-1s.45-1,1-1,1,.45,1,1-.45,1-1,1Zm7,4c-.55,0-1-.45-1-1s.45-1,1-1,1,.45,1,1-.45,1-1,1Zm8-4c0,.55-.45,1-1,1s-1-.45-1-1,.45-1,1-1,1,.45,1,1Zm9-4c0,.55-.45,1-1,1s-1-.45-1-1,.45-1,1-1,1,.45,1,1Zm-11-4h-12v-12h12v12Zm26-18h-1.3c-.48,0-.88,.33-.98,.8-.37,1.82-1.09,3.52-2.13,5.05-.27,.4-.22,.93,.12,1.27l.88,.88-2.59,2.59-.88-.88c-.34-.34-.87-.39-1.27-.12-1.54,1.04-3.24,1.76-5.05,2.13-.47,.09-.8,.5-.8,.98v1.3h-4v-1.3c0-.48-.33-.88-.8-.98-1.8-.37-3.5-1.08-5.05-2.14-.05-.03-.1-.05-.15-.07v-4.52c0-.55-.45-1-1-1h-3.64c-.49-1.02-.86-2.09-1.08-3.2-.09-.47-.5-.8-.98-.8h-1.3v-4h1.3c.48,0,.89-.33,.98-.8,.37-1.82,1.09-3.52,2.13-5.05,.27-.4,.22-.93-.12-1.27l-.88-.88,2.59-2.59,.88,.88c.34,.34,.87,.39,1.27,.12,1.54-1.04,3.24-1.76,5.05-2.13,.47-.09,.8-.5,.8-.98v-1.3h4v1.3c0,.48,.33,.88,.8,.98,1.8,.36,3.5,1.08,5.05,2.14,.4,.27,.93,.22,1.27-.12l.88-.88,2.59,2.59-.88,.88c-.34,.34-.39,.87-.12,1.27,1.05,1.55,1.77,3.25,2.14,5.05,.09,.47,.5,.8,.98,.8h1.3v4Z"/><path d="M44,6c-6.62,0-12,5.38-12,12h2c0-5.51,4.49-10,10-10s10,4.49,10,10-4.49,10-10,10v2c6.62,0,12-5.38,12-12s-5.38-12-12-12Z"/><path d="M52,18c0-4.41-3.59-8-8-8s-8,3.59-8,8,3.59,8,8,8,8-3.59,8-8Zm-13.91,1h1.91v-2h-1.91c.42-2.51,2.4-4.49,4.91-4.91v1.91h2v-1.91c2.51,.42,4.49,2.4,4.91,4.91h-1.91v2h1.91c-.42,2.51-2.4,4.49-4.91,4.91v-1.91h-2v1.91c-2.51-.42-4.49-2.4-4.91-4.91Z"/><path d="M25,36h6c.55,0,1-.45,1-1v-6c0-.55-.45-1-1-1h-6c-.55,0-1,.45-1,1v6c0,.55,.45,1,1,1Zm1-6h4v4h-4v-4Z"/></g></svg>